<svg width="13" height="9" viewBox="0 0 13 9" fill="none" xmlns="http://www.w3.org/2000/svg">
<path d="M0.986764 0H12.0132C12.2084 5.00962e-05 12.3992 0.0696599 12.5615 0.20003C12.7237 0.3304 12.8502 0.515677 12.9249 0.732437C12.9996 0.949198 13.0191 1.18771 12.981 1.41782C12.943 1.64793 12.849 1.85931 12.711 2.02523L7.19779 8.65263C7.01271 8.87505 6.76171 9 6.5 9C6.23829 9 5.98729 8.87505 5.80221 8.65263L0.288973 2.02523C0.150985 1.85931 0.0570185 1.64793 0.0189533 1.41782C-0.0191119 1.18771 0.000433402 0.949198 0.0751178 0.732437C0.149802 0.515677 0.276272 0.3304 0.438541 0.20003C0.600809 0.0696599 0.791589 5.00962e-05 0.986764 0Z" fill="#0066FF"/>
</svg>
